<svg width="14" height="22" viewBox="0 0 14 22" fill="none" xmlns="http://www.w3.org/2000/svg">
<circle cx="6.60832" cy="8.49644" r="4.72026" fill="#5B5DF0"/>
<rect x="2.51746" y="13.5314" width="8.18178" height="8.18178" rx="2.51747" fill="#5B5DF0"/>
<path d="M2.78739 2.03639C2.89604 1.51711 3.55898 1.35697 3.89269 1.76939L6.42953 4.90462C6.72031 5.26399 6.53739 5.80373 6.08805 5.91228L2.7253 6.72459C2.27596 6.83314 1.86682 6.43641 1.96149 5.98393L2.78739 2.03639Z" fill="#5B5DF0"/>
<path d="M2.9218 2.90653C3.03045 2.38725 3.69339 2.22711 4.0271 2.63953L5.02203 3.86915C5.31281 4.22851 5.1299 4.76826 4.68055 4.8768L3.3617 5.19539C2.91235 5.30393 2.50322 4.90721 2.59789 4.45473L2.9218 2.90653Z" fill="#7474FF"/>
<path d="M9.37177 1.7694C9.70547 1.35698 10.3684 1.51712 10.4771 2.0364L11.303 5.98394C11.3977 6.43641 10.9885 6.83314 10.5392 6.7246L7.17644 5.91231C6.72709 5.80377 6.54417 5.26402 6.83495 4.90465L9.37177 1.7694Z" fill="#5B5DF0"/>
<path d="M9.13067 2.69758C9.47152 2.29104 10.1316 2.46272 10.2311 2.98382L10.5377 4.58806C10.6244 5.04212 10.2084 5.43165 9.76105 5.31528L8.40517 4.9626C7.95779 4.84624 7.78432 4.30338 8.08132 3.94915L9.13067 2.69758Z" fill="#7474FF"/>
</svg>
