<svg width="39" height="40" viewBox="0 0 39 40" fill="none" xmlns="http://www.w3.org/2000/svg">
<path d="M31.8079 15.2295V34.5342C31.8079 35.896 30.7038 37 29.342 37H9.12329C7.76149 37 6.65747 35.896 6.65747 34.5342V14.542L19.4797 4L31.8079 15.2295Z" fill="#5B5DF0"/>
<path d="M37.2329 24.5L21.22 2.70467C20.2347 1.36355 18.2311 1.36355 17.2458 2.70467L1.23291 24.5" stroke="#D72A2A" stroke-width="2.46575" stroke-linecap="round"/>
<path d="M36.7398 24.5L21.179 4.5011C20.1918 3.23235 18.2741 3.23235 17.2869 4.5011L1.72607 24.5" stroke="#801818" stroke-width="2.46575" stroke-linecap="round"/>
<path d="M19.4797 25.5C22.2033 25.5001 24.4114 27.7081 24.4114 30.4316V37H14.0549V30.4316C14.0549 27.708 16.263 25.5 18.9866 25.5H19.4797Z" fill="#4A4BBD"/>
<path d="M19.4797 25.5C22.2033 25.5001 24.4114 27.7081 24.4114 30.4316V37H14.0549V30.4316C14.0549 27.708 16.263 25.5 18.9866 25.5H19.4797Z" stroke="black"/>
<rect x="16.4067" y="15.5385" width="6.14542" height="2.07692" fill="white"/>
<ellipse cx="22.7228" cy="15.7115" rx="1.19494" ry="1.21154" fill="white"/>
<ellipse cx="16.236" cy="15.7115" rx="1.19494" ry="1.21154" fill="white"/>
<ellipse cx="22.7228" cy="17.7885" rx="1.19494" ry="1.21154" fill="white"/>
<ellipse cx="16.236" cy="17.7885" rx="1.19494" ry="1.21154" fill="white"/>
</svg>
