<svg width="15" height="20" viewBox="0 0 15 20" fill="none" xmlns="http://www.w3.org/2000/svg">
<path d="M9.99609 8.24677C11.2033 8.24698 12.1816 9.22604 12.1816 10.4333V15.2429C12.1814 16.4499 11.2032 17.4282 9.99609 17.4284H5.18652C3.97927 17.4284 3.00021 16.4501 3 15.2429V10.4333C3 9.22591 3.97914 8.24677 5.18652 8.24677H9.99609ZM9.33008 10.8864C9.28259 10.6594 8.99262 10.5891 8.84668 10.7692L8.09375 11.6989C7.94723 11.6659 7.79517 11.6472 7.63867 11.6472C7.48798 11.6472 7.34073 11.6634 7.19922 11.694L6.45117 10.7692C6.30526 10.5889 6.01528 10.6594 5.96777 10.8864L5.60645 12.612C5.58068 12.7352 5.64026 12.8491 5.73633 12.9059C5.63161 13.1531 5.57422 13.4253 5.57422 13.7106C5.57422 14.8505 6.49884 15.7741 7.63867 15.7741C8.77831 15.7739 9.70215 14.8503 9.70215 13.7106C9.70215 13.4281 9.64477 13.159 9.54199 12.9138C9.64854 12.861 9.71876 12.7427 9.69141 12.612L9.33008 10.8864Z" fill="#5B5DF0"/>
<path d="M7.72131 3C9.83638 3 11.6002 4.8777 12.0055 7.37207H11.2252C10.8599 5.39628 9.449 3.91783 7.75647 3.90527C6.04941 3.89312 4.61455 5.37585 4.24573 7.37207H3.43713C3.8424 4.87789 5.60649 3.00038 7.72131 3Z" fill="#5B5DF0"/>
</svg>
