<svg width="33" height="35" viewBox="0 0 33 35" fill="none" xmlns="http://www.w3.org/2000/svg">
<ellipse cx="16.6538" cy="22.8508" rx="11.2158" ry="11.2549" fill="#F3AD6D"/>
<path d="M12.2354 25.9203H21.072V27.641C21.072 30.0812 19.0939 32.0594 16.6537 32.0594C14.2135 32.0594 12.2354 30.0812 12.2354 27.641V25.9203Z" fill="white"/>
<rect x="12.2354" y="19.0992" width="2.03924" height="4.09268" rx="1.01962" fill="#C08035"/>
<rect x="19.033" y="19.0992" width="2.03924" height="4.09268" rx="1.01962" fill="#C08035"/>
<ellipse cx="27.5297" cy="17.3939" rx="5.09809" ry="5.11586" fill="#5556D2"/>
<ellipse cx="19.3727" cy="13.3012" rx="5.09809" ry="5.11586" fill="#4F50C4"/>
<ellipse cx="11.8955" cy="11.2549" rx="5.09809" ry="5.11586" fill="#4F50C4"/>
<ellipse cx="5.09809" cy="16.0297" rx="5.09809" ry="5.11586" fill="#5556D2"/>
<ellipse cx="6.45747" cy="9.89064" rx="5.09809" ry="5.11586" fill="#5556D2"/>
<ellipse cx="13.2551" cy="5.79798" rx="5.09809" ry="5.11586" fill="#4F50C4"/>
<ellipse cx="25.4904" cy="10.5728" rx="5.09809" ry="5.11586" fill="#4F50C4"/>
<ellipse cx="19.3727" cy="5.11586" rx="5.09809" ry="5.11586" fill="#4F50C4"/>
</svg>
