<svg width="37" height="35" viewBox="0 0 37 35" fill="none" xmlns="http://www.w3.org/2000/svg">
<path d="M1.96948 6.13344C1.96948 3.29666 4.26914 0.997009 7.10592 0.997009H28.9168C31.7536 0.997009 34.0532 3.29667 34.0532 6.13344V19.2037C34.0532 27.714 27.1543 34.613 18.6439 34.613H17.3788C8.86847 34.613 1.96948 27.714 1.96948 19.2037V6.13344Z" fill="#4A4BBD"/>
<path d="M1.96959 17.5683L29.807 0.997077L30.9865 1.23381L32.1661 1.94401L33.1097 2.89093L33.5815 3.83786L1.96959 22.0662L1.96959 17.5683Z" fill="#5A5EFF"/>
<path d="M3.85686 27.2743L34.0533 9.75616L34.0533 10.4664L34.0533 11.4133L34.0533 12.5969L34.0533 14.0173L6.45188 30.8253L5.0364 29.1682L4.32867 28.458L3.85686 27.2743Z" fill="#5A5EFF"/>
<rect x="12.1318" y="13.8535" width="11.7592" height="3.93339" fill="white"/>
<ellipse cx="24.2177" cy="14.1813" rx="2.28651" ry="2.29448" fill="white"/>
<ellipse cx="11.8051" cy="14.1812" rx="2.28651" ry="2.29448" fill="white"/>
<ellipse cx="24.2177" cy="18.1147" rx="2.28651" ry="2.29448" fill="white"/>
<ellipse cx="11.8051" cy="18.1147" rx="2.28651" ry="2.29448" fill="white"/>
</svg>
