<svg width="8" height="8" viewBox="0 0 8 8" fill="none" xmlns="http://www.w3.org/2000/svg">
<path d="M2.79359 0.720374C3.10568 -0.240144 4.46456 -0.240143 4.77665 0.720375L4.95546 1.2707C5.09503 1.70026 5.49533 1.99109 5.94699 1.99109H6.52564C7.53559 1.99109 7.95551 3.28346 7.13844 3.87709L6.6703 4.21722C6.3049 4.4827 6.152 4.95327 6.29157 5.38283L6.47038 5.93316C6.78248 6.89367 5.68312 7.6924 4.86606 7.09877L4.39792 6.75865C4.03252 6.49317 3.53772 6.49317 3.17232 6.75865L2.70418 7.09877C1.88712 7.6924 0.787765 6.89367 1.09986 5.93316L1.27867 5.38283C1.41824 4.95327 1.26534 4.4827 0.899938 4.21722L0.431799 3.87709C-0.385266 3.28346 0.0346508 1.99109 1.0446 1.99109H1.62325C2.07491 1.99109 2.47521 1.70026 2.61478 1.2707L2.79359 0.720374Z" fill="#E65C5C"/>
</svg>
