<svg width="46" height="45" viewBox="0 0 46 45" fill="none" xmlns="http://www.w3.org/2000/svg">
<rect x="3.26855" y="12.4208" width="37.916" height="32.0325" fill="#F7DEA5"/>
<rect x="10.4595" y="29.4176" width="23.5341" height="15.0357" fill="#9BD5DD"/>
<path d="M3.2687 12.4208H41.1847L44.4533 25.4953H0.653809L3.2687 12.4208Z" fill="white"/>
<path d="M3.26862 12.4208H9.44973L10.0729 24.9471C10.1067 25.6264 9.61406 26.2181 8.93989 26.308L6.90374 26.5795C5.79239 26.7277 4.6666 26.7323 3.55408 26.5932L1.44764 26.3299C0.675059 26.2334 0.157574 25.4872 0.337912 24.7298L3.26862 12.4208Z" fill="#F76E5D"/>
<path d="M9.1521 12.4208H17.9774L19.1654 24.8955C19.2321 25.5953 18.7335 26.2225 18.0367 26.3154L16.1715 26.5641C14.9841 26.7224 13.7805 26.7168 12.5946 26.5474L10.8755 26.3018C10.2547 26.2131 9.78426 25.6961 9.75443 25.0697L9.1521 12.4208Z" fill="white"/>
<path d="M17.6506 12.4208H26.4759L27.664 24.8955C27.7306 25.5953 27.232 26.2225 26.5352 26.3154L25.876 26.4033C23.9049 26.6661 21.8999 26.4759 20.0135 25.8471L19.7613 25.763C19.2726 25.6001 18.9251 25.1654 18.8738 24.6528L17.6506 12.4208Z" fill="#F76E5D"/>
<path d="M35.301 12.4208H41.5114L45.018 24.6938C45.2371 25.4608 44.7243 26.2436 43.9336 26.349L42.3205 26.5641C41.133 26.7224 39.9294 26.7168 38.7435 26.5474L37.0244 26.3018C36.4036 26.2131 35.9332 25.6961 35.9034 25.0697L35.301 12.4208Z" fill="#F76E5D"/>
<path d="M26.1489 12.4208H35.6279L35.9283 25.0377C35.9436 25.6784 35.4921 26.2357 34.8622 26.3538L33.3519 26.637C31.6258 26.9607 29.8472 26.8662 28.165 26.3616C27.7366 26.233 27.4286 25.8578 27.3862 25.4125L26.1489 12.4208Z" fill="white"/>
<circle cx="22.5535" cy="10.7864" r="10.623" fill="#4A4BBD" stroke="#364EED" stroke-width="0.326862"/>
<rect x="18.8071" y="9.20233" width="8.14641" height="2.71547" fill="white"/>
<circle cx="27.1797" cy="9.42863" r="1.58402" fill="white"/>
<circle cx="18.5809" cy="9.42869" r="1.58402" fill="white"/>
<circle cx="27.1797" cy="12.1441" r="1.58402" fill="white"/>
<circle cx="18.5809" cy="12.1441" r="1.58402" fill="white"/>
<path d="M14.9408 44.4532V33.3399M14.9408 33.3399H33.6669M14.9408 33.3399H10.1328" stroke="black" stroke-width="0.130745"/>
</svg>
